<svg width="13" height="15" viewBox="0 0 13 15" fill="none" xmlns="http://www.w3.org/2000/svg">
<path d="M3.66667 8.91699C3.46597 8.91699 3.29763 8.84899 3.16163 8.71299C3.0261 8.57747 2.95833 8.40935 2.95833 8.20866C2.95833 8.00796 3.0261 7.83962 3.16163 7.70362C3.29763 7.56809 3.46597 7.50033 3.66667 7.50033C3.86736 7.50033 4.03571 7.56809 4.17171 7.70362C4.30724 7.83962 4.375 8.00796 4.375 8.20866C4.375 8.40935 4.30724 8.57747 4.17171 8.71299C4.03571 8.84899 3.86736 8.91699 3.66667 8.91699ZM6.5 8.91699C6.29931 8.91699 6.13119 8.84899 5.99567 8.71299C5.85967 8.57747 5.79167 8.40935 5.79167 8.20866C5.79167 8.00796 5.85967 7.83962 5.99567 7.70362C6.13119 7.56809 6.29931 7.50033 6.5 7.50033C6.70069 7.50033 6.86904 7.56809 7.00504 7.70362C7.14057 7.83962 7.20833 8.00796 7.20833 8.20866C7.20833 8.40935 7.14057 8.57747 7.00504 8.71299C6.86904 8.84899 6.70069 8.91699 6.5 8.91699ZM9.33333 8.91699C9.13264 8.91699 8.96453 8.84899 8.829 8.71299C8.693 8.57747 8.625 8.40935 8.625 8.20866C8.625 8.00796 8.693 7.83962 8.829 7.70362C8.96453 7.56809 9.13264 7.50033 9.33333 7.50033C9.53403 7.50033 9.70214 7.56809 9.83767 7.70362C9.97367 7.83962 10.0417 8.00796 10.0417 8.20866C10.0417 8.40935 9.97367 8.57747 9.83767 8.71299C9.70214 8.84899 9.53403 8.91699 9.33333 8.91699ZM1.54167 14.5837C1.15208 14.5837 0.818458 14.4451 0.540792 14.1679C0.263597 13.8902 0.125 13.5566 0.125 13.167V3.25033C0.125 2.86074 0.263597 2.52735 0.540792 2.25016C0.818458 1.97249 1.15208 1.83366 1.54167 1.83366H2.25V0.416992H3.66667V1.83366H9.33333V0.416992H10.75V1.83366H11.4583C11.8479 1.83366 12.1815 1.97249 12.4592 2.25016C12.7364 2.52735 12.875 2.86074 12.875 3.25033V13.167C12.875 13.5566 12.7364 13.8902 12.4592 14.1679C12.1815 14.4451 11.8479 14.5837 11.4583 14.5837H1.54167ZM1.54167 13.167H11.4583V6.08366H1.54167V13.167ZM1.54167 4.66699H11.4583V3.25033H1.54167V4.66699ZM1.54167 4.66699V3.25033V4.66699Z" fill="black"/>
</svg>
