<svg width="50" height="62" viewBox="0 0 50 62" fill="none" xmlns="http://www.w3.org/2000/svg">
<path d="M50 21.514C49.9674 21.2292 49.9046 20.9487 49.8125 20.677V20.398C49.6622 20.0793 49.4618 19.7863 49.2188 19.53L30.4688 0.93C30.2104 0.68887 29.9151 0.490051 29.5938 0.341H29.3125C28.995 0.160398 28.6444 0.044467 28.2812 0H9.375C6.8886 0 4.50403 0.979819 2.74587 2.72391C0.987721 4.468 0 6.83349 0 9.3V52.7C0 55.1665 0.987721 57.532 2.74587 59.2761C4.50403 61.0202 6.8886 62 9.375 62H40.625C43.1114 62 45.496 61.0202 47.2541 59.2761C49.0123 57.532 50 55.1665 50 52.7V21.7C50 21.7 50 21.7 50 21.514ZM31.25 10.571L39.3438 18.6H34.375C33.5462 18.6 32.7513 18.2734 32.1653 17.692C31.5792 17.1107 31.25 16.3222 31.25 15.5V10.571ZM43.75 52.7C43.75 53.5222 43.4208 54.3107 42.8347 54.892C42.2487 55.4734 41.4538 55.8 40.625 55.8H9.375C8.5462 55.8 7.75134 55.4734 7.16529 54.892C6.57924 54.3107 6.25 53.5222 6.25 52.7V9.3C6.25 8.47783 6.57924 7.68933 7.16529 7.10797C7.75134 6.52661 8.5462 6.2 9.375 6.2H25V15.5C25 17.9665 25.9877 20.332 27.7459 22.0761C29.504 23.8202 31.8886 24.8 34.375 24.8H43.75V52.7Z" fill="#D9D9D9"/>
</svg>
