<svg width="15" height="15" viewBox="0 0 15 15" fill="none" xmlns="http://www.w3.org/2000/svg">
<path d="M13.5167 14.625L8.52917 9.6375C8.13333 9.95417 7.67812 10.2049 7.16354 10.3896C6.64896 10.5743 6.10139 10.6667 5.52083 10.6667C4.08264 10.6667 2.86558 10.1687 1.86967 9.17279C0.873222 8.17635 0.375 6.95903 0.375 5.52083C0.375 4.08264 0.873222 2.86532 1.86967 1.86888C2.86558 0.872958 4.08264 0.375 5.52083 0.375C6.95903 0.375 8.17635 0.872958 9.17279 1.86888C10.1687 2.86532 10.6667 4.08264 10.6667 5.52083C10.6667 6.10139 10.5743 6.64896 10.3896 7.16354C10.2049 7.67812 9.95417 8.13333 9.6375 8.52917L14.625 13.5167L13.5167 14.625ZM5.52083 9.08333C6.51042 9.08333 7.35169 8.73711 8.04467 8.04467C8.73711 7.35169 9.08333 6.51042 9.08333 5.52083C9.08333 4.53125 8.73711 3.68997 8.04467 2.997C7.35169 2.30456 6.51042 1.95833 5.52083 1.95833C4.53125 1.95833 3.68997 2.30456 2.997 2.997C2.30456 3.68997 1.95833 4.53125 1.95833 5.52083C1.95833 6.51042 2.30456 7.35169 2.997 8.04467C3.68997 8.73711 4.53125 9.08333 5.52083 9.08333Z" fill="black"/>
</svg>
